<svg width="24" height="24" viewBox="0 0 24 24" fill="none" xmlns="http://www.w3.org/2000/svg">
<path fill-rule="evenodd" clip-rule="evenodd" d="M12 3C7.02944 3 3 7.02944 3 12C3 16.9706 7.02944 21 12 21C16.9706 21 21 16.9706 21 12C21 7.02944 16.9706 3 12 3ZM1 12C1 5.92487 5.92487 1 12 1C18.0751 1 23 5.92487 23 12C23 18.0751 18.0751 23 12 23C5.92487 23 1 18.0751 1 12Z" fill="#C00B20"/>
<path fill-rule="evenodd" clip-rule="evenodd" d="M8.46492 15.5352C8.07439 15.1447 8.07439 14.5115 8.46492 14.121L14.1218 8.46416C14.5123 8.07364 15.1455 8.07364 15.536 8.46416C15.9265 8.85469 15.9265 9.48785 15.536 9.87838L9.87913 15.5352C9.48861 15.9258 8.85544 15.9258 8.46492 15.5352Z" fill="#C00B20"/>
<path fill-rule="evenodd" clip-rule="evenodd" d="M8.46477 8.46492C8.85529 8.07439 9.48846 8.07439 9.87898 8.46492L15.5358 14.1218C15.9264 14.5123 15.9264 15.1455 15.5358 15.536C15.1453 15.9265 14.5121 15.9265 14.1216 15.536L8.46477 9.87913C8.07424 9.48861 8.07424 8.85544 8.46477 8.46492Z" fill="#C00B20"/>
</svg>
